<svg width="12" height="12" viewBox="0 0 12 12" fill="none" xmlns="http://www.w3.org/2000/svg">
<path d="M6 1.5C6.34375 1.5 6.67578 1.54492 6.99609 1.63477C7.31641 1.72461 7.61523 1.84961 7.89258 2.00977C8.16992 2.16992 8.42187 2.36523 8.64844 2.5957C8.875 2.82617 9.07031 3.08008 9.23438 3.35742C9.39844 3.63477 9.52539 3.93359 9.61523 4.25391C9.70508 4.57422 9.75 4.90625 9.75 5.25C9.75 5.59375 9.70508 5.92578 9.61523 6.24609C9.52539 6.56641 9.40039 6.86523 9.24023 7.14258C9.08008 7.41992 8.88477 7.67187 8.6543 7.89844C8.42383 8.125 8.16992 8.32031 7.89258 8.48438C7.61523 8.64844 7.31641 8.77539 6.99609 8.86523C6.67578 8.95508 6.34375 9 6 9C5.65625 9 5.32422 8.95508 5.00391 8.86523C4.68359 8.77539 4.38477 8.65039 4.10742 8.49023C3.83008 8.33008 3.57813 8.13477 3.35156 7.9043C3.125 7.67383 2.92969 7.41992 2.76562 7.14258C2.60156 6.86523 2.47461 6.56641 2.38477 6.24609C2.29492 5.92578 2.25 5.59375 2.25 5.25C2.25 4.90625 2.29492 4.57422 2.38477 4.25391C2.47461 3.93359 2.59961 3.63477 2.75977 3.35742C2.91992 3.08008 3.11523 2.82813 3.3457 2.60156C3.57617 2.375 3.83008 2.17969 4.10742 2.01562C4.38477 1.85156 4.68359 1.72461 5.00391 1.63477C5.32422 1.54492 5.65625 1.5 6 1.5ZM6 8.26758C6.41406 8.26758 6.80469 8.18945 7.17188 8.0332C7.53906 7.87695 7.85937 7.66016 8.13281 7.38281C8.40625 7.10547 8.62305 6.78711 8.7832 6.42773C8.94336 6.06836 9.02344 5.67578 9.02344 5.25C9.02344 4.83594 8.94531 4.44531 8.78906 4.07812C8.63281 3.71094 8.41602 3.39063 8.13867 3.11719C7.86133 2.84375 7.53906 2.62891 7.17188 2.47266C6.80469 2.31641 6.41406 2.23633 6 2.23242C5.58203 2.23242 5.19141 2.31055 4.82812 2.4668C4.46484 2.62305 4.14453 2.83984 3.86719 3.11719C3.58984 3.39453 3.37305 3.71484 3.2168 4.07812C3.06055 4.44141 2.98047 4.83203 2.97656 5.25C2.97656 5.66797 3.05469 6.05859 3.21094 6.42188C3.36719 6.78516 3.58398 7.10547 3.86133 7.38281C4.13867 7.66016 4.45898 7.875 4.82227 8.02734C5.18555 8.17969 5.57812 8.25977 6 8.26758ZM6 12C5.76172 12 5.55664 11.918 5.38477 11.7539C4.86523 11.2461 4.34961 10.7441 3.83789 10.248C3.32617 9.75195 2.81055 9.24805 2.29102 8.73633C1.79492 8.25195 1.41406 7.70117 1.14844 7.08398C0.882813 6.4668 0.75 5.8125 0.75 5.12109C0.75 4.64062 0.814453 4.18164 0.943359 3.74414C1.07227 3.30664 1.25195 2.89648 1.48242 2.51367C1.71289 2.13086 1.98828 1.78711 2.30859 1.48242C2.62891 1.17773 2.98438 0.914062 3.375 0.691406C3.76562 0.46875 4.18164 0.298828 4.62305 0.181641C5.06445 0.0644531 5.52344 0.00390625 6 0C6.47266 0 6.92969 0.0585938 7.37109 0.175781C7.8125 0.292969 8.22852 0.462891 8.61914 0.685547C9.00977 0.908203 9.36523 1.17383 9.68555 1.48242C10.0059 1.79102 10.2832 2.13477 10.5176 2.51367C10.752 2.89258 10.9316 3.30078 11.0566 3.73828C11.1816 4.17578 11.2461 4.63672 11.25 5.12109C11.25 5.8125 11.1172 6.4668 10.8516 7.08398C10.5859 7.70117 10.207 8.25195 9.71484 8.73633C9.19531 9.24414 8.67969 9.74609 8.16797 10.2422C7.65625 10.7383 7.13867 11.2422 6.61523 11.7539C6.44336 11.918 6.23828 12 6 12ZM10.5 5.12695C10.5 4.7168 10.4453 4.32422 10.3359 3.94922C10.2266 3.57422 10.0723 3.22461 9.87305 2.90039C9.67383 2.57617 9.43555 2.28125 9.1582 2.01562C8.88086 1.75 8.57617 1.52344 8.24414 1.33594C7.91211 1.14844 7.55664 1.00391 7.17773 0.902344C6.79883 0.800781 6.40625 0.75 6 0.75C5.59766 0.75 5.20703 0.800781 4.82812 0.902344C4.44922 1.00391 4.0918 1.14844 3.75586 1.33594C3.41992 1.52344 3.11523 1.75 2.8418 2.01562C2.56836 2.28125 2.33008 2.57617 2.12695 2.90039C1.92383 3.22461 1.76953 3.57422 1.66406 3.94922C1.55859 4.32422 1.50391 4.7168 1.5 5.12695C1.5 5.7168 1.61328 6.27344 1.83984 6.79688C2.06641 7.32031 2.39062 7.78711 2.8125 8.19727L5.90625 11.2148C5.92969 11.2383 5.96094 11.25 6 11.25C6.03906 11.25 6.07031 11.2383 6.09375 11.2148L9.1875 8.19727C9.60938 7.78711 9.93359 7.32031 10.1602 6.79688C10.3867 6.27344 10.5 5.7168 10.5 5.12695Z" fill="black"/>
</svg>
