    <svg width="58" height="1027" viewBox="0 0 58 1027" fill="none" xmlns="http://www.w3.org/2000/svg">
    <path d="M11.33 343H0.2V341.5L5.06 336.58C6.1 335.52 6.88 334.69 7.4 334.09C7.92 333.47 8.31 332.87 8.57 332.29C8.83 331.71 8.96 331.07 8.96 330.37C8.96 329.51 8.7 328.8 8.18 328.24C7.68 327.68 6.92 327.4 5.9 327.4C4.86 327.4 4.04 327.69 3.44 328.27C2.86 328.85 2.57 329.68 2.57 330.76C2.57 331.26 2.65 331.88 2.81 332.62H0.77C0.59 331.98 0.5 331.35 0.5 330.73C0.5 329.23 1.01 328.04 2.03 327.16C3.07 326.26 4.46 325.81 6.2 325.81C7.74 325.81 8.95 326.21 9.83 327.01C10.73 327.81 11.18 328.85 11.18 330.13C11.18 330.95 11 331.73 10.64 332.47C10.28 333.19 9.79 333.91 9.17 334.63C8.55 335.33 7.63 336.29 6.41 337.51L2.63 341.32H9.32V338.11H11.3L11.33 343ZM20.7509 343.33C18.6909 343.33 17.1309 342.58 16.0709 341.08C15.0309 339.56 14.5109 337.36 14.5109 334.48C14.5109 331.74 15.0409 329.61 16.1009 328.09C17.1609 326.57 18.7109 325.81 20.7509 325.81C22.7909 325.81 24.3409 326.57 25.4009 328.09C26.4609 329.61 26.9909 331.74 26.9909 334.48C26.9909 337.36 26.4609 339.56 25.4009 341.08C24.3609 342.58 22.8109 343.33 20.7509 343.33ZM20.7509 341.74C22.0509 341.74 23.0409 341.12 23.7209 339.88C24.4209 338.64 24.7709 336.84 24.7709 334.48C24.7709 332.18 24.4209 330.43 23.7209 329.23C23.0409 328.01 22.0509 327.4 20.7509 327.4C19.4509 327.4 18.4509 328.01 17.7509 329.23C17.0709 330.43 16.7309 332.18 16.7309 334.48C16.7309 336.84 17.0709 338.64 17.7509 339.88C18.4509 341.12 19.4509 341.74 20.7509 341.74ZM36.8349 343.33C34.7749 343.33 33.2149 342.58 32.1549 341.08C31.1149 339.56 30.5949 337.36 30.5949 334.48C30.5949 331.74 31.1249 329.61 32.1849 328.09C33.2449 326.57 34.7949 325.81 36.8349 325.81C38.8749 325.81 40.4249 326.57 41.4849 328.09C42.5449 329.61 43.0749 331.74 43.0749 334.48C43.0749 337.36 42.5449 339.56 41.4849 341.08C40.4449 342.58 38.8949 343.33 36.8349 343.33ZM36.8349 341.74C38.1349 341.74 39.1249 341.12 39.8049 339.88C40.5049 338.64 40.8549 336.84 40.8549 334.48C40.8549 332.18 40.5049 330.43 39.8049 329.23C39.1249 328.01 38.1349 327.4 36.8349 327.4C35.5349 327.4 34.5349 328.01 33.8349 329.23C33.1549 330.43 32.8149 332.18 32.8149 334.48C32.8149 336.84 33.1549 338.64 33.8349 339.88C34.5349 341.12 35.5349 341.74 36.8349 341.74ZM51.8689 343.33C49.9289 343.33 48.4289 342.88 47.3689 341.98C46.3089 341.08 45.7789 339.92 45.7789 338.5C45.7789 337.48 46.0689 336.6 46.6489 335.86C47.2289 335.1 48.0489 334.54 49.1089 334.18C48.1289 333.76 47.4189 333.23 46.9789 332.59C46.5389 331.93 46.3189 331.14 46.3189 330.22C46.3189 328.9 46.8189 327.84 47.8189 327.04C48.8189 326.22 50.1589 325.81 51.8389 325.81C53.5389 325.81 54.8889 326.21 55.8889 327.01C56.8889 327.81 57.3889 328.88 57.3889 330.22C57.3889 332.18 56.4389 333.51 54.5389 334.21C55.6389 334.51 56.4689 335.03 57.0289 335.77C57.6089 336.51 57.8989 337.41 57.8989 338.47C57.8989 339.91 57.3589 341.08 56.2789 341.98C55.2189 342.88 53.7489 343.33 51.8689 343.33ZM53.0989 333.61C53.5389 333.45 53.9789 333.08 54.4189 332.5C54.8789 331.92 55.1089 331.22 55.1089 330.4C55.1089 329.52 54.8189 328.82 54.2389 328.3C53.6789 327.76 52.8789 327.49 51.8389 327.49C50.8189 327.49 50.0189 327.75 49.4389 328.27C48.8789 328.79 48.5989 329.5 48.5989 330.4C48.5989 331.36 48.9789 332.09 49.7389 332.59C50.4989 333.09 51.6189 333.43 53.0989 333.61ZM51.8689 341.62C52.9689 341.62 53.8489 341.33 54.5089 340.75C55.1689 340.17 55.4989 339.39 55.4989 338.41C55.4989 337.33 55.0989 336.54 54.2989 336.04C53.4989 335.52 52.2289 335.12 50.4889 334.84C50.1489 334.92 49.7989 335.13 49.4389 335.47C49.0789 335.79 48.7789 336.21 48.5389 336.73C48.2989 337.23 48.1789 337.78 48.1789 338.38C48.1789 339.36 48.5089 340.15 49.1689 340.75C49.8289 341.33 50.7289 341.62 51.8689 341.62Z" fill={color}/>
    <path d="M11.33 704H0.2V702.5L5.06 697.58C6.1 696.52 6.88 695.69 7.4 695.09C7.92 694.47 8.31 693.87 8.57 693.29C8.83 692.71 8.96 692.07 8.96 691.37C8.96 690.51 8.7 689.8 8.18 689.24C7.68 688.68 6.92 688.4 5.9 688.4C4.86 688.4 4.04 688.69 3.44 689.27C2.86 689.85 2.57 690.68 2.57 691.76C2.57 692.26 2.65 692.88 2.81 693.62H0.77C0.59 692.98 0.5 692.35 0.5 691.73C0.5 690.23 1.01 689.04 2.03 688.16C3.07 687.26 4.46 686.81 6.2 686.81C7.74 686.81 8.95 687.21 9.83 688.01C10.73 688.81 11.18 689.85 11.18 691.13C11.18 691.95 11 692.73 10.64 693.47C10.28 694.19 9.79 694.91 9.17 695.63C8.55 696.33 7.63 697.29 6.41 698.51L2.63 702.32H9.32V699.11H11.3L11.33 704ZM20.7509 704.33C18.6909 704.33 17.1309 703.58 16.0709 702.08C15.0309 700.56 14.5109 698.36 14.5109 695.48C14.5109 692.74 15.0409 690.61 16.1009 689.09C17.1609 687.57 18.7109 686.81 20.7509 686.81C22.7909 686.81 24.3409 687.57 25.4009 689.09C26.4609 690.61 26.9909 692.74 26.9909 695.48C26.9909 698.36 26.4609 700.56 25.4009 702.08C24.3609 703.58 22.8109 704.33 20.7509 704.33ZM20.7509 702.74C22.0509 702.74 23.0409 702.12 23.7209 700.88C24.4209 699.64 24.7709 697.84 24.7709 695.48C24.7709 693.18 24.4209 691.43 23.7209 690.23C23.0409 689.01 22.0509 688.4 20.7509 688.4C19.4509 688.4 18.4509 689.01 17.7509 690.23C17.0709 691.43 16.7309 693.18 16.7309 695.48C16.7309 697.84 17.0709 699.64 17.7509 700.88C18.4509 702.12 19.4509 702.74 20.7509 702.74ZM36.8349 704.33C34.7749 704.33 33.2149 703.58 32.1549 702.08C31.1149 700.56 30.5949 698.36 30.5949 695.48C30.5949 692.74 31.1249 690.61 32.1849 689.09C33.2449 687.57 34.7949 686.81 36.8349 686.81C38.8749 686.81 40.4249 687.57 41.4849 689.09C42.5449 690.61 43.0749 692.74 43.0749 695.48C43.0749 698.36 42.5449 700.56 41.4849 702.08C40.4449 703.58 38.8949 704.33 36.8349 704.33ZM36.8349 702.74C38.1349 702.74 39.1249 702.12 39.8049 700.88C40.5049 699.64 40.8549 697.84 40.8549 695.48C40.8549 693.18 40.5049 691.43 39.8049 690.23C39.1249 689.01 38.1349 688.4 36.8349 688.4C35.5349 688.4 34.5349 689.01 33.8349 690.23C33.1549 691.43 32.8149 693.18 32.8149 695.48C32.8149 697.84 33.1549 699.64 33.8349 700.88C34.5349 702.12 35.5349 702.74 36.8349 702.74ZM51.6289 686.78C52.7689 686.78 53.7789 687.02 54.6589 687.5C55.5589 687.96 56.2589 688.62 56.7589 689.48C57.2789 690.34 57.5389 691.32 57.5389 692.42C57.5389 693.24 57.4489 693.98 57.2689 694.64C57.1089 695.3 56.8189 696.01 56.3989 696.77C55.9989 697.53 55.3789 698.55 54.5389 699.83L50.8489 705.41L49.0789 704.21L53.9689 697.01C53.1289 697.53 52.1389 697.79 50.9989 697.79C50.0789 697.79 49.2289 697.57 48.4489 697.13C47.6689 696.67 47.0489 696.04 46.5889 695.24C46.1289 694.42 45.8989 693.49 45.8989 692.45C45.8989 691.37 46.1389 690.4 46.6189 689.54C47.1189 688.68 47.8089 688.01 48.6889 687.53C49.5689 687.03 50.5489 686.78 51.6289 686.78ZM51.4789 696.14C52.5589 696.14 53.4689 695.8 54.2089 695.12C54.9489 694.42 55.3189 693.48 55.3189 692.3C55.3189 691.2 54.9989 690.29 54.3589 689.57C53.7189 688.85 52.8089 688.49 51.6289 688.49C50.5089 688.49 49.6189 688.85 48.9589 689.57C48.2989 690.29 47.9689 691.23 47.9689 692.39C47.9689 693.53 48.2789 694.44 48.8989 695.12C49.5389 695.8 50.3989 696.14 51.4789 696.14Z" fill={color}/>
    <rect x="29" y="20" width="5" height="281" fill={color}/>
    <circle cx="32" cy="10" r="10" fill={color}/>
    <rect x="29" y="376" width="5" height="281" fill={color}/>
    <circle cx="32" cy="366" r="10" fill={color}/>
    <rect x="29" y="746" width="5" height="281" fill={color}/>
    <circle cx="32" cy="736" r="10" fill={color}/>
    </svg>