<svg width="34" height="69" viewBox="0 0 34 69" fill="none" xmlns="http://www.w3.org/2000/svg">
<path d="M3 2C3 0.89543 3.89543 0 5 0H28C31.3137 0 34 2.68629 34 6V69H3V2Z" fill="white"/>
<path d="M6.59375 60.1172L8.05859 60.1172L8.05859 63.1992L11 63.1992L11 64.8281L3.14844 64.8281L3.14844 59.4727L4.61328 59.4727L4.61328 63.1992L6.59375 63.1992L6.59375 60.1172ZM3.08984 53.9766L11 50.3203L11 52.2305L9.53516 52.8281L9.53516 55.9336L11 56.5312L11 58.4414L3.08984 54.7852L3.08984 53.9766ZM5.75 54.375L8.15234 55.3594L8.15234 53.3906L5.75 54.375ZM3.08984 41.25L11 41.25L11 42.8789L6.21875 42.8789L8.42187 44.8945L8.42187 45.3633L6.21875 47.4023L11 47.4023L11 49.0312L3.08984 49.0312L3.08984 48.4805L6.58203 45.1289L3.08984 41.8008L3.08984 41.25ZM9.53515 34.6875L11 34.6875L11 38.9648L9.53516 38.9648L9.53516 37.6406L4.61328 37.6406L4.61328 38.9648L3.14844 38.9648L3.14844 34.6875L4.61328 34.6875L4.61328 36.0117L9.53515 36.0117L9.53515 34.6875ZM3.14844 30.7734L9.53515 30.7734L9.53515 26.8477L11 26.8477L11 32.4023L3.14844 32.4023L3.14844 30.7734ZM3.125 23.1211L10.5195 23.1211C11.1836 23.1211 11.7422 23.2461 12.1953 23.4961C12.6562 23.7383 13.0312 24.0742 13.3203 24.5039C13.6094 24.9336 13.832 25.4258 13.9883 25.9805L12.5234 26.6016C12.1641 25.3672 11.5195 24.75 10.5898 24.75L3.125 24.75L3.125 23.1211Z" fill="black"/>
<path d="M21 59.93L21.9128 59.0044L25.3408 62.4701L25.3509 44H26.6491L26.6389 62.501L30.0872 59.0044L31 59.93L26 65L21 59.93Z" fill="black"/>
</svg>
