<svg width="34" height="69" viewBox="0 0 34 69" fill="none" xmlns="http://www.w3.org/2000/svg">
<path d="M3 2C3 0.89543 3.89543 0 5 0H28C31.3137 0 34 2.68629 34 6V69H3V2Z" fill="white"/>
<path d="M2.99609 62.6836C2.99609 62.2305 3.05859 61.8164 3.18359 61.4414C3.30859 61.0664 3.45312 60.75 3.61719 60.4922L5.22266 60.4922C5.05078 60.7734 4.89062 61.0742 4.74219 61.3945C4.59375 61.7148 4.51953 62.0781 4.51953 62.4844C4.51953 62.6875 4.55078 62.8906 4.61328 63.0937C4.67578 63.2891 4.76953 63.4531 4.89453 63.5859C5.01953 63.7109 5.17969 63.7734 5.375 63.7734C5.63281 63.7734 5.82812 63.6602 5.96094 63.4336C6.09375 63.207 6.22656 62.9297 6.35937 62.6016L6.75781 61.6406C6.99219 61.0937 7.27734 60.6914 7.61328 60.4336C7.94922 60.1758 8.33203 60.0469 8.76172 60.0469C9.23047 60.0469 9.64453 60.1836 10.0039 60.457C10.3555 60.7227 10.6328 61.082 10.8359 61.5352C11.0391 61.9805 11.1406 62.4766 11.1406 63.0234C11.1406 63.4844 11.0625 63.9258 10.9062 64.3477C10.75 64.7695 10.5586 65.1367 10.332 65.4492L8.72656 65.4492C8.97656 65.1055 9.1875 64.7266 9.35937 64.3125C9.53125 63.8984 9.61719 63.457 9.61719 62.9883C9.61719 62.6602 9.55469 62.3789 9.42969 62.1445C9.29687 61.9102 9.10156 61.793 8.84375 61.793C8.64062 61.793 8.47656 61.8906 8.35156 62.0859C8.21875 62.2734 8.10937 62.4805 8.02344 62.707L7.55469 63.9141C7.32031 64.5234 7.01562 64.9375 6.64062 65.1562C6.25781 65.3672 5.83594 65.4727 5.375 65.4727C4.89844 65.4727 4.48437 65.3437 4.13281 65.0859C3.77344 64.8203 3.49609 64.4766 3.30078 64.0547C3.09766 63.6328 2.99609 63.1758 2.99609 62.6836ZM3.14844 52.6172L4.61328 52.6172L4.61328 55.125L10.9648 55.125L10.9648 56.7422L4.61328 56.7422L4.61328 59.25L3.14844 59.25L3.14844 52.6172ZM3.08984 48.5391L11 44.8828L11 46.793L9.53516 47.3906L9.53516 50.4961L11 51.0937L11 53.0039L3.08984 49.3477L3.08984 48.5391ZM5.75 48.9375L8.15234 49.9219L8.15234 47.9531L5.75 48.9375ZM3.14844 36.7266L11.0586 36.7266L11.0586 37.3125L6.26562 41.9648L11 41.9648L11 43.5937L3.08984 43.5937L3.08984 43.0078L7.95312 38.3555L3.14844 38.3555L3.14844 36.7266ZM2.96094 31.3359C2.96094 30.5078 3.1289 29.7812 3.46484 29.1562C3.80078 28.5312 4.26953 28.0469 4.87109 27.7031C5.47265 27.3516 6.17969 27.1758 6.99219 27.1758C7.76562 27.1758 8.46875 27.3398 9.10156 27.668C9.72656 27.9961 10.2227 28.4648 10.5898 29.0742C10.957 29.6836 11.1406 30.4102 11.1406 31.2539C11.1406 31.793 11.1133 32.332 11.0586 32.8711C11.0039 33.4023 10.9297 33.9062 10.8359 34.3828L3.26562 34.3828C3.1875 33.8984 3.11719 33.4023 3.05469 32.8945C2.99219 32.3867 2.96094 31.8672 2.96094 31.3359ZM4.48437 31.3008C4.48437 31.5352 4.49609 31.7812 4.51953 32.0391C4.54297 32.2969 4.57422 32.5352 4.61328 32.7539L9.48828 32.7539C9.53515 32.5195 9.57031 32.2773 9.59375 32.0273C9.60937 31.7695 9.61719 31.5273 9.61719 31.3008C9.61719 30.7852 9.50781 30.3437 9.28906 29.9766C9.0625 29.6094 8.7539 29.3281 8.36328 29.1328C7.97265 28.9375 7.53515 28.8398 7.05078 28.8398C6.55078 28.8398 6.10937 28.9375 5.72656 29.1328C5.34375 29.3281 5.04297 29.6094 4.82422 29.9766C4.59765 30.3437 4.48437 30.7852 4.48437 31.3008ZM3.08984 22.4766L11 18.8203L11 20.7305L9.53515 21.3281L9.53515 24.4336L11 25.0312L11 26.9414L3.08984 23.2852L3.08984 22.4766ZM5.75 22.875L8.15234 23.8594L8.15234 21.8906L5.75 22.875ZM3.14844 14.3437C3.14844 13.9766 3.19922 13.6172 3.30078 13.2656C3.40234 12.9141 3.55859 12.5977 3.76953 12.3164C3.98047 12.0273 4.24609 11.8008 4.5664 11.6367C4.8789 11.4648 5.2539 11.3789 5.6914 11.3789C6.15234 11.3789 6.55078 11.4961 6.88672 11.7305C7.21484 11.957 7.47265 12.2578 7.66015 12.6328C7.83984 13.0078 7.94531 13.4141 7.97656 13.8516L11 11.0273L11 13.1719L7.78906 15.9023L11 15.9023L11 17.5312L3.14844 17.5312L3.14844 14.3437ZM4.67187 15.9023L6.65234 15.9023C6.71484 15.7148 6.76562 15.5078 6.80469 15.2812C6.83594 15.0469 6.85156 14.8125 6.85156 14.5781C6.85156 14.1094 6.75781 13.7383 6.57031 13.4648C6.375 13.1836 6.10156 13.043 5.75 13.043C5.36719 13.043 5.09375 13.1914 4.92969 13.4883C4.75781 13.7773 4.67187 14.1328 4.67187 14.5547L4.67187 15.9023ZM2.96093 6.65625C2.96093 5.82812 3.1289 5.10156 3.46484 4.47656C3.80078 3.85156 4.26953 3.36719 4.87109 3.02344C5.47265 2.67187 6.17968 2.49609 6.99218 2.49609C7.76562 2.49609 8.46875 2.66016 9.10156 2.98828C9.72656 3.31641 10.2227 3.78516 10.5898 4.39453C10.957 5.00391 11.1406 5.73047 11.1406 6.57422C11.1406 7.11328 11.1133 7.65234 11.0586 8.19141C11.0039 8.72266 10.9297 9.22656 10.8359 9.70312L3.26562 9.70312C3.1875 9.21875 3.11718 8.72266 3.05468 8.21484C2.99218 7.70703 2.96093 7.1875 2.96093 6.65625ZM4.48437 6.62109C4.48437 6.85547 4.49609 7.10156 4.51953 7.35937C4.54297 7.61719 4.57422 7.85547 4.61328 8.07422L9.48828 8.07422C9.53515 7.83984 9.57031 7.59766 9.59375 7.34766C9.60937 7.08984 9.61718 6.84766 9.61718 6.62109C9.61718 6.10547 9.50781 5.66406 9.28906 5.29687C9.0625 4.92969 8.7539 4.64844 8.36328 4.45312C7.97265 4.25781 7.53515 4.16016 7.05078 4.16016C6.55078 4.16016 6.10937 4.25781 5.72656 4.45312C5.34375 4.64844 5.04297 4.92969 4.82422 5.29687C4.59765 5.66406 4.48437 6.10547 4.48437 6.62109Z" fill="black"/>
<path d="M21 59.93L21.9128 59.0044L25.3408 62.4701L25.3509 44H26.6491L26.6389 62.501L30.0872 59.0044L31 59.93L26 65L21 59.93Z" fill="black"/>
</svg>
